<svg width="127" height="127" viewBox="0 0 127 127" fill="none" xmlns="http://www.w3.org/2000/svg">
<path d="M59.4707 4.63158C61.7116 2.44428 65.2884 2.44428 67.5293 4.63158C69.6576 6.70903 72.8927 7.15369 75.5027 5.7275C78.2506 4.2259 81.6947 5.19089 83.2624 7.90167C84.7513 10.4763 87.7465 11.7773 90.6444 11.1081C93.6956 10.4036 96.7516 12.262 97.5298 15.2952C98.2689 18.1761 100.802 20.2369 103.773 20.3744C106.901 20.5192 109.342 23.1332 109.273 26.2639C109.208 29.2373 111.091 31.9052 113.915 32.8392C116.888 33.8225 118.533 36.9983 117.622 39.9942C116.757 42.8397 117.85 45.9167 120.317 47.5779C122.915 49.3269 123.643 52.8288 121.957 55.4679C120.356 57.9744 120.579 61.2323 122.506 63.4975C124.535 65.8824 124.291 69.4508 121.956 71.5372C119.738 73.5188 119.074 76.7161 120.319 79.4172C121.629 82.2612 120.432 85.6314 117.62 87.0105C114.95 88.3202 113.447 91.2197 113.917 94.1565C114.412 97.2486 112.349 100.171 109.27 100.74C106.346 101.281 104.117 103.667 103.777 106.622C103.419 109.733 100.644 111.99 97.5256 111.708C94.5636 111.439 91.7734 113.136 90.6489 115.89C89.465 118.789 86.1844 120.213 83.2576 119.1C80.4778 118.043 77.3333 118.924 75.5077 121.271C73.5855 123.744 70.0421 124.231 67.5242 122.369C65.1328 120.6 61.8672 120.6 59.4758 122.369C56.9579 124.231 53.4145 123.744 51.4924 121.271C49.6667 118.924 46.5222 118.043 43.7424 119.1C40.8156 120.213 37.535 118.789 36.3511 115.89C35.2266 113.136 32.4364 111.439 29.4744 111.708C26.3557 111.99 23.5812 109.733 23.2233 106.622C22.8834 103.667 20.6545 101.281 17.7299 100.74C14.6506 100.171 12.588 97.2486 13.0827 94.1565C13.5525 91.2197 12.0501 88.3202 9.37991 87.0105C6.56847 85.6314 5.3707 82.2612 6.68127 79.4172C7.92603 76.7161 7.26163 73.5188 5.04378 71.5372C2.70866 69.4508 2.46457 65.8824 4.49385 63.4975C6.42121 61.2323 6.64406 57.9744 5.04309 55.4679C3.35746 52.8288 4.08517 49.3269 6.68265 47.5779C9.14967 45.9167 10.2432 42.8397 9.37788 39.9942C8.46677 36.9983 10.1123 33.8225 13.0853 32.8392C15.909 31.9052 17.7922 29.2374 17.7267 26.2639C17.6576 23.1332 20.0989 20.5192 23.227 20.3744C26.198 20.2369 28.7311 18.1761 29.4702 15.2952C30.2484 12.262 33.3044 10.4036 36.3556 11.1081C39.2535 11.7773 42.2487 10.4763 43.7376 7.90166C45.3053 5.19088 48.7494 4.2259 51.4973 5.7275C54.1073 7.15369 57.3424 6.70903 59.4707 4.63158Z" fill="#E9F0F1" stroke="#3B3B3B"/>
<rect width="51" height="51" transform="translate(40 38)" fill="#E9F0F1"/>
<path d="M76.875 81C79.2222 81 81.125 79.0972 81.125 76.75C81.125 74.4028 79.2222 72.5 76.875 72.5C74.5278 72.5 72.625 74.4028 72.625 76.75C72.625 79.0972 74.5278 81 76.875 81Z" stroke="#3B3B3B" stroke-width="2.5" stroke-linecap="round" stroke-linejoin="round"/>
<path d="M76.875 81C79.2222 81 81.125 79.0972 81.125 76.75C81.125 74.4028 79.2222 72.5 76.875 72.5C74.5278 72.5 72.625 74.4028 72.625 76.75C72.625 79.0972 74.5278 81 76.875 81Z" stroke="#3A2D32" stroke-width="2.5" stroke-linecap="round" stroke-linejoin="round"/>
<path d="M55.625 81C57.9722 81 59.875 79.0972 59.875 76.75C59.875 74.4028 57.9722 72.5 55.625 72.5C53.2778 72.5 51.375 74.4028 51.375 76.75C51.375 79.0972 53.2778 81 55.625 81Z" stroke="#3B3B3B" stroke-width="2.5" stroke-linecap="round" stroke-linejoin="round"/>
<path d="M55.625 81C57.9722 81 59.875 79.0972 59.875 76.75C59.875 74.4028 57.9722 72.5 55.625 72.5C53.2778 72.5 51.375 74.4028 51.375 76.75C51.375 79.0972 53.2778 81 55.625 81Z" stroke="#3A2D32" stroke-width="2.5" stroke-linecap="round" stroke-linejoin="round"/>
<path d="M51.375 76.6905C49.0439 76.5758 47.5925 76.2294 46.5555 75.1945C45.5185 74.1596 45.1743 72.7061 45.0595 70.375M59.875 76.75H72.625M81.125 76.6905C83.4561 76.5758 84.9075 76.2294 85.9445 75.1945C87.5 73.6369 87.5 71.1336 87.5 66.125V61.875H77.5125C75.9294 61.875 75.1389 61.875 74.4992 61.6668C73.8614 61.4595 73.2817 61.1042 72.8075 60.63C72.3333 60.1558 71.978 59.5761 71.7707 58.9383C71.5625 58.2986 71.5625 57.5081 71.5625 55.925C71.5625 53.5514 71.5625 52.3656 71.2501 51.4051C70.9392 50.4484 70.4063 49.5788 69.695 48.8675C68.9837 48.1562 68.1141 47.6233 67.1574 47.3124C66.1969 47 65.0111 47 62.6375 47H45M45 55.5H57.75M45 61.875H53.5" stroke="#3B3B3B" stroke-width="2.5" stroke-linecap="round" stroke-linejoin="round"/>
<path d="M51.375 76.6905C49.0439 76.5758 47.5925 76.2294 46.5555 75.1945C45.5185 74.1596 45.1743 72.7061 45.0595 70.375M59.875 76.75H72.625M81.125 76.6905C83.4561 76.5758 84.9075 76.2294 85.9445 75.1945C87.5 73.6369 87.5 71.1336 87.5 66.125V61.875H77.5125C75.9294 61.875 75.1389 61.875 74.4992 61.6668C73.8614 61.4595 73.2817 61.1042 72.8075 60.63C72.3333 60.1558 71.978 59.5761 71.7707 58.9383C71.5625 58.2986 71.5625 57.5081 71.5625 55.925C71.5625 53.5514 71.5625 52.3656 71.2501 51.4051C70.9392 50.4484 70.4063 49.5788 69.695 48.8675C68.9837 48.1562 68.1141 47.6233 67.1574 47.3124C66.1969 47 65.0111 47 62.6375 47H45M45 55.5H57.75M45 61.875H53.5" stroke="#3A2D32" stroke-width="2.5" stroke-linecap="round" stroke-linejoin="round"/>
<path d="M71.5625 51.25H75.4321C78.5261 51.25 80.071 51.25 81.329 52.0023C82.5891 52.7524 83.3223 54.1145 84.7885 56.8388L87.5 61.875" stroke="#3B3B3B" stroke-width="2.5" stroke-linecap="round" stroke-linejoin="round"/>
<path d="M71.5625 51.25H75.4321C78.5261 51.25 80.071 51.25 81.329 52.0023C82.5891 52.7524 83.3223 54.1145 84.7885 56.8388L87.5 61.875" stroke="#3A2D32" stroke-width="2.5" stroke-linecap="round" stroke-linejoin="round"/>
</svg>
