<svg width="71" height="59" viewBox="0 0 71 59" fill="none" xmlns="http://www.w3.org/2000/svg">
<path d="M58.9273 20.3368C44.2654 24.5548 29.7686 18.8631 26.5384 7.63457C29.7686 18.8631 20.5031 31.3907 5.85052 35.606C20.5031 31.3907 35.007 37.0721 38.2394 48.3082C35.007 37.0721 44.2654 24.5548 58.9273 20.3368Z" fill="#FDC983"/>
<path d="M33.6693 14.5662C35.9211 18.4725 39.6777 21.4446 44.2634 23.2436C48.6342 24.9583 53.7717 25.6149 59.1243 25.006C54.2663 27.3339 50.2627 30.6189 47.471 34.3934C44.5421 38.3534 42.939 42.8672 43.1076 47.3746C40.8545 43.4668 37.0964 40.4953 32.51 38.6973C28.1386 36.9836 23.0012 36.3282 17.6506 36.9372C22.5067 34.6093 26.5102 31.3229 29.3025 27.5476C32.232 23.5866 33.8367 19.0722 33.6693 14.5662Z" stroke="black"/>
</svg>
