<svg width="185" height="140" viewBox="0 0 185 140" fill="none" xmlns="http://www.w3.org/2000/svg">
<path d="M112.25 123.057L144.226 61.6847L160.729 57.5588C159.01 61.3409 156.775 64.4353 154.025 66.8421C151.618 69.2488 148.523 70.4522 144.741 70.4522C137.521 70.4522 130.816 67.5297 124.628 61.6847C118.783 55.4959 115.86 47.9318 115.86 38.9923C115.86 29.3653 119.126 21.1135 125.659 14.2371C132.536 7.36057 140.787 3.92233 150.414 3.92233C159.354 3.92233 167.262 7.36057 174.138 14.2371C181.015 21.1135 184.453 29.3653 184.453 38.9923C184.453 42.7744 183.593 47.416 181.874 52.9172C180.499 58.0745 177.576 64.951 173.107 73.5466L139.068 137.498L112.25 123.057ZM17.3547 123.057L49.3303 61.6847L65.8338 57.5588C64.1147 61.3409 61.8798 64.4353 59.1292 66.8421C56.7225 69.2488 53.6281 70.4522 49.846 70.4522C42.6257 70.4522 35.9211 67.5297 29.7323 61.6847C23.8873 55.4959 20.9648 47.9318 20.9648 38.9923C20.9648 29.3653 24.2311 21.1135 30.7638 14.2371C37.6403 7.36057 45.892 3.92233 55.5191 3.92233C64.4585 3.92233 72.3664 7.36057 79.2429 14.2371C86.1194 21.1135 89.5576 29.3653 89.5576 38.9923C89.5576 42.7744 88.6981 47.416 86.9789 52.9172C85.6036 58.0745 82.6811 64.951 78.2114 73.5466L44.1729 137.498L17.3547 123.057Z" fill="#FDC983"/>
<mask id="path-2-outside-1_208_197" maskUnits="userSpaceOnUse" x="1" y="2" width="170" height="137" fill="black">
<rect fill="white" x="1" y="2" width="170" height="137"/>
<path d="M97.25 123.057L129.226 61.6847L145.729 57.5588C144.01 61.3409 141.775 64.4353 139.025 66.8421C136.618 69.2488 133.523 70.4522 129.741 70.4522C122.521 70.4522 115.816 67.5297 109.628 61.6847C103.783 55.4959 100.86 47.9318 100.86 38.9923C100.86 29.3653 104.126 21.1135 110.659 14.2371C117.536 7.36057 125.787 3.92233 135.414 3.92233C144.354 3.92233 152.262 7.36057 159.138 14.2371C166.015 21.1135 169.453 29.3653 169.453 38.9923C169.453 42.7744 168.593 47.416 166.874 52.9172C165.499 58.0745 162.576 64.951 158.107 73.5466L124.068 137.498L97.25 123.057ZM2.35467 123.057L34.3303 61.6847L50.8338 57.5588C49.1147 61.3409 46.8798 64.4353 44.1292 66.8421C41.7225 69.2488 38.6281 70.4522 34.846 70.4522C27.6257 70.4522 20.9211 67.5297 14.7323 61.6847C8.88732 55.4959 5.96482 47.9318 5.96482 38.9923C5.96482 29.3653 9.23114 21.1135 15.7638 14.2371C22.6403 7.36057 30.892 3.92233 40.5191 3.92233C49.4585 3.92233 57.3664 7.36057 64.2429 14.2371C71.1194 21.1135 74.5576 29.3653 74.5576 38.9923C74.5576 42.7744 73.6981 47.416 71.9789 52.9172C70.6036 58.0745 67.6811 64.951 63.2114 73.5466L29.1729 137.498L2.35467 123.057Z"/>
</mask>
<path d="M97.25 123.057L96.3631 122.595L95.9073 123.47L96.7759 123.938L97.25 123.057ZM129.226 61.6847L128.983 60.7146L128.547 60.8237L128.339 61.2226L129.226 61.6847ZM145.729 57.5588L146.639 57.9726L147.497 56.0861L145.487 56.5887L145.729 57.5588ZM139.025 66.8421L138.366 66.0895L138.341 66.1114L138.317 66.1349L139.025 66.8421ZM109.628 61.6847L108.901 62.3713L108.92 62.3921L108.941 62.4117L109.628 61.6847ZM110.659 14.2371L109.952 13.5299L109.943 13.539L109.934 13.5483L110.659 14.2371ZM159.138 14.2371L158.431 14.9442L158.431 14.9442L159.138 14.2371ZM166.874 52.9172L165.92 52.6189L165.913 52.6391L165.908 52.6595L166.874 52.9172ZM158.107 73.5466L158.99 74.0165L158.994 74.008L158.107 73.5466ZM124.068 137.498L123.594 138.378L124.479 138.855L124.951 137.968L124.068 137.498ZM2.35467 123.057L1.46782 122.595L1.01202 123.47L1.88057 123.938L2.35467 123.057ZM34.3303 61.6847L34.0877 60.7146L33.6513 60.8237L33.4434 61.2226L34.3303 61.6847ZM50.8338 57.5588L51.7442 57.9726L52.6017 56.0861L50.5913 56.5887L50.8338 57.5588ZM44.1292 66.8421L43.4707 66.0895L43.4457 66.1114L43.4221 66.1349L44.1292 66.8421ZM14.7323 61.6847L14.0053 62.3713L14.0249 62.3921L14.0457 62.4117L14.7323 61.6847ZM15.7638 14.2371L15.0567 13.5299L15.0476 13.539L15.0388 13.5483L15.7638 14.2371ZM64.2429 14.2371L63.5358 14.9442L63.5358 14.9442L64.2429 14.2371ZM71.9789 52.9172L71.0245 52.6189L71.0182 52.6391L71.0127 52.6595L71.9789 52.9172ZM63.2114 73.5466L64.0942 74.0165L64.0987 74.008L63.2114 73.5466ZM29.1729 137.498L28.6988 138.378L29.5835 138.855L30.0557 137.968L29.1729 137.498ZM98.1368 123.519L130.112 62.1468L128.339 61.2226L96.3631 122.595L98.1368 123.519ZM129.468 62.6548L145.972 58.529L145.487 56.5887L128.983 60.7146L129.468 62.6548ZM144.819 57.145C143.15 60.8152 140.996 63.7884 138.366 66.0895L139.683 67.5946C142.554 65.0821 144.869 61.8665 146.639 57.9726L144.819 57.145ZM138.317 66.1349C136.12 68.3325 133.29 69.4522 129.741 69.4522V71.4522C133.756 71.4522 137.116 70.1651 139.732 67.5492L138.317 66.1349ZM129.741 69.4522C122.821 69.4522 116.353 66.6608 110.314 60.9577L108.941 62.4117C115.28 68.3985 122.221 71.4522 129.741 71.4522V69.4522ZM110.355 60.9981C104.694 55.0049 101.86 47.6905 101.86 38.9923H99.8601C99.8601 48.173 102.871 55.9869 108.901 62.3713L110.355 60.9981ZM101.86 38.9923C101.86 29.6173 105.031 21.6133 111.384 14.9258L109.934 13.5483C103.222 20.6137 99.8601 29.1132 99.8601 38.9923H101.86ZM111.366 14.9442C118.057 8.25307 126.056 4.92233 135.414 4.92233V2.92233C125.519 2.92233 117.014 6.46807 109.952 13.5299L111.366 14.9442ZM135.414 4.92233C144.064 4.92233 151.724 8.23705 158.431 14.9442L159.845 13.5299C152.799 6.48408 144.644 2.92233 135.414 2.92233V4.92233ZM158.431 14.9442C165.122 21.6352 168.453 29.6335 168.453 38.9923H170.453C170.453 29.097 166.907 20.5918 159.845 13.5299L158.431 14.9442ZM168.453 38.9923C168.453 42.635 167.623 47.1693 165.92 52.6189L167.829 53.2155C169.564 47.6627 170.453 42.9138 170.453 38.9923H168.453ZM165.908 52.6595C164.561 57.711 161.678 64.5111 157.22 73.0853L158.994 74.008C163.475 65.3909 166.437 58.438 167.84 53.1749L165.908 52.6595ZM157.224 73.0768L123.185 137.028L124.951 137.968L158.989 74.0165L157.224 73.0768ZM124.542 136.617L97.7241 122.177L96.7759 123.938L123.594 138.378L124.542 136.617ZM3.24152 123.519L35.2171 62.1468L33.4434 61.2226L1.46782 122.595L3.24152 123.519ZM34.5728 62.6548L51.0763 58.529L50.5913 56.5887L34.0877 60.7146L34.5728 62.6548ZM49.9234 57.145C48.2552 60.8152 46.1005 63.7884 43.4707 66.0895L44.7877 67.5946C47.6592 65.0821 49.9742 61.8665 51.7442 57.9726L49.9234 57.145ZM43.4221 66.1349C41.2246 68.3325 38.3951 69.4522 34.846 69.4522V71.4522C38.861 71.4522 42.2204 70.1651 44.8363 67.5492L43.4221 66.1349ZM34.846 69.4522C27.9259 69.4522 21.4576 66.6608 15.4189 60.9577L14.0457 62.4117C20.3847 68.3985 27.3255 71.4522 34.846 71.4522V69.4522ZM15.4593 60.9981C9.79911 55.0049 6.96482 47.6905 6.96482 38.9923H4.96482C4.96482 48.173 7.97553 55.9869 14.0053 62.3713L15.4593 60.9981ZM6.96482 38.9923C6.96482 29.6173 10.1356 21.6133 16.4888 14.9258L15.0388 13.5483C8.32666 20.6137 4.96482 29.1132 4.96482 38.9923H6.96482ZM16.4709 14.9442C23.162 8.25307 31.1603 4.92233 40.5191 4.92233V2.92233C30.6238 2.92233 22.1185 6.46807 15.0567 13.5299L16.4709 14.9442ZM40.5191 4.92233C49.1687 4.92233 56.8287 8.23705 63.5358 14.9442L64.95 13.5299C57.9042 6.48408 49.7483 2.92233 40.5191 2.92233V4.92233ZM63.5358 14.9442C70.2269 21.6352 73.5576 29.6335 73.5576 38.9923H75.5576C75.5576 29.097 72.0119 20.5918 64.95 13.5299L63.5358 14.9442ZM73.5576 38.9923C73.5576 42.635 72.7275 47.1693 71.0245 52.6189L72.9334 53.2155C74.6687 47.6627 75.5576 42.9138 75.5576 38.9923H73.5576ZM71.0127 52.6595C69.6656 57.711 66.7828 64.5111 62.3242 73.0853L64.0987 74.008C68.5795 65.3909 71.5417 58.438 72.9452 53.1749L71.0127 52.6595ZM62.3287 73.0768L28.2902 137.028L30.0557 137.968L64.0942 74.0165L62.3287 73.0768ZM29.647 136.617L2.82877 122.177L1.88057 123.938L28.6988 138.378L29.647 136.617Z" fill="black" mask="url(#path-2-outside-1_208_197)"/>
</svg>
